<?xml version="1.0" encoding="UTF-8"?>
<svg id="Capa_1" data-name="Capa 1" xmlns="http://www.w3.org/2000/svg" viewBox="0 0 2000 2000">
  <defs>
    <style>
      .cls-1 {
        fill: #2d2e83;
      }

      .cls-2 {
        fill: #fff;
        font-family: Roboto-Medium, Roboto;
        font-size: 218px;
        font-weight: 500;
      }
    </style>
  </defs>
  <g>
    <path class="cls-1" d="M1462.06,447.01h-249.7v-35.97c14.38-7.59,24.21-22.68,24.21-40.03,0-24.95-20.3-45.26-45.26-45.26s-45.26,20.3-45.26,45.26c0,17.36,9.83,32.44,24.21,40.03v35.97h-91.16v-140.17c22.05-8.49,37.77-29.84,37.77-54.85,0-32.43-26.38-58.81-58.81-58.81s-58.81,26.38-58.81,58.81c0,25.01,15.72,46.36,37.77,54.85v140.17h-292.04c-101.42,0-184.68,77.63-193.67,176.71h-101.82c-8.02-20.43-27.89-34.95-51.13-34.95-30.3,0-54.95,24.65-54.95,54.95s24.65,54.95,54.95,54.95c22.27,0,41.45-13.34,50.07-32.43h446.36c20.14,0,36.47-16.33,36.47-36.47v-6.06h-181.12c20.04-27.66,52.69-43.6,98.34-44.34l674.84.29s-12.68,219.41-209.72,217.47h-105.04v700.03s-67.41.02-67.41.02c-93.01,0-150.65-71.16-150.65-163.39l-.03-98.77h-511.81c-6.52-14.67-21.2-24.94-38.26-24.94-23.09,0-41.87,18.78-41.87,41.87s18.78,41.87,41.87,41.87c13.64,0,25.74-6.59,33.39-16.71h76.66v156.61c0,107.43,87.09,194.52,194.52,194.52h558.51v88.54c-15.65,7.78-26.46,23.9-26.46,42.53,0,26.2,21.31,47.51,47.51,47.51s47.51-21.31,47.51-47.51c0-18.63-10.81-34.75-26.46-42.53v-88.54h116.45c107.43,0,194.52-87.09,194.52-194.52v-792.19c0-107.43-87.09-194.52-194.52-194.52ZM1191.32,346.8c13.37,0,24.2,10.84,24.2,24.2s-10.84,24.2-24.2,24.2-24.2-10.84-24.2-24.2,10.84-24.2,24.2-24.2ZM1026.22,251.99c0-17.59,14.26-31.86,31.86-31.86s31.86,14.26,31.86,31.86-14.26,31.86-31.86,31.86-31.86-14.26-31.86-31.86ZM398.37,672.22c-15.74,0-28.5-12.76-28.5-28.5s12.76-28.5,28.5-28.5,28.5,12.76,28.5,28.5-12.76,28.5-28.5,28.5ZM440.42,1273.67c-11.99,0-21.71-9.72-21.71-21.71s9.72-21.71,21.71-21.71,21.71,9.72,21.71,21.71-9.72,21.71-21.71,21.71ZM1324.56,1783.95c-13.61,0-24.64-11.03-24.64-24.64s11.03-24.64,24.64-24.64,24.64,11.03,24.64,24.64-11.03,24.64-24.64,24.64Z"/>
    <path class="cls-1" d="M637.64,754.37h88.41v-.15h260.2c21.04,0,38.1-17.06,38.1-38.1v-5.39h-473.88v482.2h5.06s442,0,442,0c21.53,0,38.98-17.45,38.98-38.98v-3.11h-46.04l-.1-353.82h-395.39c0-23.56,19.1-42.66,42.66-42.66Z"/>
  </g>
  <text class="cls-2" transform="translate(580.53 -49.66)"><tspan x="0" y="0">Principal</tspan></text>
</svg>