<?xml version="1.0" encoding="UTF-8"?>
<svg id="Capa_1" data-name="Capa 1" xmlns="http://www.w3.org/2000/svg" viewBox="0 0 2000 2000">
  <defs>
    <style>
      .cls-1 {
        fill: none;
        stroke: #fff;
        stroke-miterlimit: 10;
        stroke-width: 30px;
      }

      .cls-2 {
        fill: #fff;
      }
    </style>
  </defs>
  <g>
    <g>
      <path class="cls-2" d="M403.78,908.62v-36.78h159.54v36.78h-59.41v158.41h-40.73v-158.41h-59.41Z"/>
      <path class="cls-2" d="M593.31,1067.03v-195.18h133.52v36.78h-92.78v39.6h84.3v36.77h-84.3v45.26h92.78v36.77h-133.52Z"/>
      <path class="cls-2" d="M746.05,1059.39l57.99-187.54h62.23l57.99,187.54-5.1,7.64h-33.94l-11.88-39.6h-76.37l-11.88,39.6h-33.94l-5.1-7.64ZM808,990.65h54.32l-24.9-82.03h-4.52l-24.9,82.03Z"/>
      <path class="cls-2" d="M952.55,1067.03v-195.18h48.65l54.88,117.11,54.88-117.11h48.66v195.18h-40.74v-123.33l-45.82,97.87h-33.94l-45.82-97.87v123.33h-40.74Z"/>
    </g>
    <g>
      <path class="cls-2" d="M403.15,1258.13v-100.13c0-31.68,15.84-47.53,47.53-47.53h75.53l18.95,14.71v22.07h-92.79c-5.65,0-8.48,2.83-8.48,8.48v104.66c0,5.66,2.83,8.49,8.48,8.49h92.79v22.06l-18.95,14.71h-75.53c-31.68,0-47.53-15.84-47.53-47.53Z"/>
      <path class="cls-2" d="M582.49,1305.65v-195.18h133.52v36.78h-92.78v39.6h84.3v36.77h-84.3v45.26h92.78v36.77h-133.52Z"/>
      <path class="cls-2" d="M753.34,1305.65v-195.18h40.74v158.41h84.3v36.77h-125.03Z"/>
      <path class="cls-2" d="M906.65,1258.13v-147.66h40.74v149.92c0,5.66,2.83,8.49,8.48,8.49h55.45c5.66,0,8.48-2.83,8.48-8.49v-149.92h40.74v147.66c0,31.68-15.84,47.53-47.53,47.53h-58.84c-31.68,0-47.53-15.84-47.53-47.53Z"/>
      <path class="cls-2" d="M1105.23,1305.65v-195.18h40.74v158.41h84.3v36.77h-125.03Z"/>
      <path class="cls-2" d="M1242.14,1298.01l57.99-187.54h62.23l57.99,187.54-5.1,7.64h-33.94l-11.88-39.6h-76.37l-11.88,39.6h-33.94l-5.1-7.64ZM1304.09,1229.28h54.32l-24.9-82.03h-4.52l-24.9,82.03Z"/>
      <path class="cls-2" d="M1448.63,1305.65v-195.18h95.04c31.68,0,47.53,15.84,47.53,47.53v32.24c0,23.58-8.77,38.29-26.31,44.13l31.96,62.8-4.81,8.48h-35.08l-34.51-67.89h-33.09v67.89h-40.74ZM1489.37,1200.99h52.61c5.65,0,8.48-2.83,8.48-8.49v-36.77c0-5.66-2.83-8.48-8.48-8.48h-52.61v53.75Z"/>
    </g>
  </g>
  <polyline class="cls-1" points="164.04 855.75 -1066.23 855.75 -1066.23 1180.01"/>
</svg>