<?xml version="1.0" encoding="UTF-8"?>
<svg id="Capa_1" data-name="Capa 1" xmlns="http://www.w3.org/2000/svg" viewBox="0 0 2000 2000">
  <defs>
    <style>
      .cls-1 {
        fill: #fff;
      }
    </style>
  </defs>
  <g>
    <path class="cls-1" d="M140.33,1035.33v-32.3h140.12v32.3h-52.18v139.13h-35.77v-139.13h-52.18Z"/>
    <path class="cls-1" d="M306.79,1174.46v-171.43h117.27v32.3h-81.49v34.78h74.04v32.3h-74.04v39.75h81.49v32.3h-117.27Z"/>
    <path class="cls-1" d="M440.95,1167.75l50.94-164.72h54.66l50.94,164.72-4.48,6.71h-29.81l-10.43-34.78h-67.08l-10.43,34.78h-29.81l-4.48-6.71ZM495.36,1107.38h47.71l-21.87-72.05h-3.97l-21.87,72.05Z"/>
    <path class="cls-1" d="M622.32,1174.46v-171.43h42.73l48.2,102.86,48.2-102.86h42.74v171.43h-35.78v-108.32l-40.25,85.96h-29.81l-40.25-85.96v108.32h-35.78Z"/>
  </g>
  <g>
    <path class="cls-1" d="M848.31,1132.72v-87.95c0-27.83,13.92-41.74,41.74-41.74h66.34l16.64,12.92v19.38h-81.5c-4.96,0-7.45,2.48-7.45,7.45v91.92c0,4.97,2.49,7.46,7.45,7.46h81.5v19.37l-16.64,12.92h-66.34c-27.83,0-41.74-13.92-41.74-41.74Z"/>
    <path class="cls-1" d="M1005.82,1174.46v-171.43h117.27v32.3h-81.49v34.78h74.04v32.3h-74.04v39.75h81.49v32.3h-117.27Z"/>
    <path class="cls-1" d="M1155.89,1174.46v-171.43h35.78v139.14h74.04v32.3h-109.82Z"/>
    <path class="cls-1" d="M1290.54,1132.72v-129.69h35.78v131.68c0,4.97,2.49,7.46,7.45,7.46h48.7c4.97,0,7.45-2.49,7.45-7.46v-131.68h35.78v129.69c0,27.83-13.92,41.74-41.74,41.74h-51.68c-27.83,0-41.74-13.92-41.74-41.74Z"/>
    <path class="cls-1" d="M1464.95,1174.46v-171.43h35.78v139.14h74.04v32.3h-109.82Z"/>
    <path class="cls-1" d="M1585.19,1167.75l50.94-164.72h54.66l50.94,164.72-4.48,6.71h-29.81l-10.43-34.78h-67.08l-10.43,34.78h-29.81l-4.48-6.71ZM1639.61,1107.38h47.71l-21.87-72.05h-3.97l-21.87,72.05Z"/>
    <path class="cls-1" d="M1766.56,1174.46v-171.43h83.48c27.83,0,41.74,13.92,41.74,41.74v28.32c0,20.71-7.71,33.63-23.11,38.76l28.07,55.16-4.22,7.45h-30.81l-30.31-59.63h-29.07v59.63h-35.78ZM1802.34,1082.54h46.21c4.96,0,7.45-2.49,7.45-7.46v-32.3c0-4.97-2.49-7.45-7.45-7.45h-46.21v47.21Z"/>
  </g>
</svg>