<?xml version="1.0" encoding="UTF-8"?>
<svg id="Capa_1" data-name="Capa 1" xmlns="http://www.w3.org/2000/svg" viewBox="0 0 2000 2000">
  <defs>
    <style>
      .cls-1 {
        fill: #1d1d1b;
      }
    </style>
  </defs>
  <g>
    <path class="cls-1" d="M667,824.08v-36.78h159.54v36.78h-59.41v158.41h-40.73v-158.41h-59.41Z"/>
    <path class="cls-1" d="M856.52,982.49v-195.18h133.52v36.78h-92.78v39.6h84.3v36.77h-84.3v45.26h92.78v36.77h-133.52Z"/>
    <path class="cls-1" d="M1009.26,974.84l57.99-187.54h62.23l57.99,187.54-5.1,7.64h-33.94l-11.88-39.6h-76.37l-11.88,39.6h-33.94l-5.1-7.64ZM1071.21,906.11h54.32l-24.9-82.03h-4.52l-24.9,82.03Z"/>
    <path class="cls-1" d="M1215.76,982.49v-195.18h48.65l54.88,117.11,54.88-117.11h48.66v195.18h-40.74v-123.33l-45.82,97.87h-33.94l-45.82-97.87v123.33h-40.74Z"/>
  </g>
  <g>
    <path class="cls-1" d="M666.36,1173.58v-100.13c0-31.68,15.84-47.53,47.53-47.53h75.53l18.95,14.71v22.07h-92.79c-5.65,0-8.48,2.83-8.48,8.48v104.66c0,5.66,2.83,8.49,8.48,8.49h92.79v22.06l-18.95,14.71h-75.53c-31.68,0-47.53-15.84-47.53-47.53Z"/>
    <path class="cls-1" d="M845.7,1221.11v-195.18h133.52v36.78h-92.78v39.6h84.3v36.77h-84.3v45.26h92.78v36.77h-133.52Z"/>
    <path class="cls-1" d="M1016.55,1221.11v-195.18h40.74v158.41h84.3v36.77h-125.03Z"/>
    <path class="cls-1" d="M1169.86,1173.58v-147.66h40.74v149.92c0,5.66,2.83,8.49,8.48,8.49h55.45c5.66,0,8.48-2.83,8.48-8.49v-149.92h40.74v147.66c0,31.68-15.84,47.53-47.53,47.53h-58.84c-31.68,0-47.53-15.84-47.53-47.53Z"/>
    <path class="cls-1" d="M1368.45,1221.11v-195.18h40.74v158.41h84.3v36.77h-125.03Z"/>
    <path class="cls-1" d="M1505.35,1213.47l57.99-187.54h62.23l57.99,187.54-5.1,7.64h-33.94l-11.88-39.6h-76.37l-11.88,39.6h-33.94l-5.1-7.64ZM1567.3,1144.73h54.32l-24.9-82.03h-4.52l-24.9,82.03Z"/>
    <path class="cls-1" d="M1711.84,1221.11v-195.18h95.04c31.68,0,47.53,15.84,47.53,47.53v32.24c0,23.58-8.77,38.29-26.31,44.13l31.96,62.8-4.81,8.48h-35.08l-34.51-67.89h-33.09v67.89h-40.74ZM1752.58,1116.45h52.61c5.65,0,8.48-2.83,8.48-8.49v-36.77c0-5.66-2.83-8.48-8.48-8.48h-52.61v53.75Z"/>
  </g>
  <g>
    <path class="cls-1" d="M547.04,790.26h-90.87v-13.09c5.23-2.76,8.81-8.25,8.81-14.57,0-9.08-7.39-16.47-16.47-16.47s-16.47,7.39-16.47,16.47c0,6.32,3.58,11.81,8.81,14.57v13.09h-33.17v-51.01c8.02-3.09,13.74-10.86,13.74-19.96,0-11.8-9.6-21.4-21.4-21.4s-21.4,9.6-21.4,21.4c0,9.1,5.72,16.87,13.74,19.96v51.01h-106.28c-36.91,0-67.21,28.25-70.48,64.31h-37.05c-2.92-7.43-10.15-12.72-18.61-12.72-11.03,0-20,8.97-20,20s8.97,20,20,20c8.11,0,15.09-4.86,18.22-11.8h162.44c7.33,0,13.27-5.94,13.27-13.27v-2.2h-65.91c7.29-10.07,19.18-15.87,35.79-16.14l245.59.1s-4.61,79.85-76.32,79.14h-38.23v254.76s-24.53,0-24.53,0c-33.85,0-54.82-25.9-54.82-59.46v-35.95h-186.27c-2.37-5.34-7.72-9.08-13.92-9.08-8.4,0-15.24,6.84-15.24,15.24s6.84,15.24,15.24,15.24c4.96,0,9.37-2.4,12.15-6.08h27.9v56.99c0,39.1,31.69,70.79,70.79,70.79h203.26v32.22c-5.7,2.83-9.63,8.7-9.63,15.48,0,9.53,7.76,17.29,17.29,17.29s17.29-7.76,17.29-17.29c0-6.78-3.93-12.65-9.63-15.48v-32.22h42.38c39.1,0,70.79-31.69,70.79-70.79v-288.3c0-39.1-31.69-70.79-70.79-70.79ZM448.51,753.79c4.86,0,8.81,3.94,8.81,8.81s-3.94,8.81-8.81,8.81-8.81-3.94-8.81-8.81,3.94-8.81,8.81-8.81ZM388.42,719.28c0-6.4,5.19-11.59,11.59-11.59s11.59,5.19,11.59,11.59-5.19,11.59-11.59,11.59-11.59-5.19-11.59-11.59ZM159.93,872.22c-5.73,0-10.37-4.64-10.37-10.37s4.64-10.37,10.37-10.37,10.37,4.64,10.37,10.37-4.64,10.37-10.37,10.37ZM175.24,1091.1c-4.36,0-7.9-3.54-7.9-7.9s3.54-7.9,7.9-7.9,7.9,3.54,7.9,7.9-3.54,7.9-7.9,7.9ZM497,1276.81c-4.95,0-8.97-4.01-8.97-8.97s4.01-8.97,8.97-8.97,8.97,4.01,8.97,8.97-4.01,8.97-8.97,8.97Z"/>
    <path class="cls-1" d="M247.01,902.12h32.18v-.06h94.69c7.66,0,13.86-6.21,13.86-13.86v-1.96h-172.46v175.49h1.84s160.86,0,160.86,0c7.83,0,14.18-6.35,14.18-14.18v-1.13h-16.76l-.04-128.76h-143.89c0-8.57,6.95-15.52,15.52-15.52Z"/>
  </g>
</svg>