<?xml version="1.0" standalone="no"?>
<!DOCTYPE svg PUBLIC "-//W3C//DTD SVG 20010904//EN"
 "http://www.w3.org/TR/2001/REC-SVG-20010904/DTD/svg10.dtd">
<svg version="1.0" xmlns="http://www.w3.org/2000/svg"
 width="240.000000pt" height="240.000000pt" viewBox="0 0 240.000000 240.000000"
 preserveAspectRatio="xMidYMid meet">
<metadata>
Created by potrace 1.14, written by Peter Selinger 2001-2017
</metadata>
<g transform="translate(0.000000,240.000000) scale(0.100000,-0.100000)"
fill="#000000" stroke="none">
<path d="M672 2297 c-49 -18 -90 -62 -99 -108 -6 -32 -10 -1843 -4 -1971 1
-36 53 -94 98 -109 26 -8 161 -12 469 -11 590 0 548 -26 552 336 3 234 2 244
-16 248 -38 10 -43 -4 -42 -118 1 -60 1 -130 1 -155 l-1 -46 -420 0 -420 0 17
21 c10 11 32 36 49 56 18 19 42 47 55 63 22 25 27 26 59 17 131 -36 285 42
346 175 30 65 40 168 18 186 -18 14 -27 8 -113 -84 -72 -77 -70 -76 -173 -37
l-57 21 -25 81 -25 82 29 35 c15 20 49 56 74 81 43 41 61 88 36 91 -60 8 -140
-8 -185 -36 -38 -24 -102 -90 -119 -124 -36 -68 -48 -178 -26 -235 10 -27 7
-32 -58 -98 l-69 -71 0 727 -1 726 22 1 c34 0 949 1 969 0 15 -1 17 -13 17
-116 l0 -115 31 0 30 0 -3 199 c-3 227 -6 237 -88 278 -43 22 -48 23 -469 22
-298 -1 -436 -4 -459 -12z m631 -112 c4 -8 2 -17 -4 -21 -18 -11 -299 -8 -311
4 -25 25 6 32 157 32 125 0 154 -3 158 -15z m-105 -1905 c31 -29 29 -73 -4
-99 -32 -25 -71 -21 -96 10 -24 29 -23 58 4 86 27 28 67 30 96 3z"/>
<path d="M1011 1816 c-5 -6 -12 -21 -15 -32 -9 -30 -41 -36 -69 -14 -24 19
-24 19 -57 -9 -32 -26 -33 -29 -21 -58 16 -40 1 -70 -36 -75 -26 -3 -28 -7
-31 -49 -3 -44 -1 -47 27 -57 25 -9 31 -17 31 -39 0 -15 -7 -37 -15 -47 -14
-18 -12 -23 16 -52 30 -31 33 -32 55 -18 17 12 27 13 43 4 18 -9 26 -23 19
-32 -1 -2 4 -12 10 -24 8 -15 22 -21 50 -22 36 -2 40 1 45 28 8 37 48 51 77
25 21 -19 42 -12 74 24 18 19 18 22 2 46 -15 23 -15 27 0 51 9 14 23 23 30 20
23 -9 45 24 42 62 -2 29 -8 37 -27 42 -33 7 -49 54 -27 76 22 21 20 35 -9 67
-29 31 -39 33 -57 13 -19 -20 -72 8 -65 34 3 11 0 23 -7 28 -18 15 -75 20 -85
8z m63 -137 c95 -35 110 -176 24 -229 -18 -11 -50 -20 -72 -20 -31 0 -45 7
-77 39 -34 33 -39 45 -39 83 0 57 33 109 80 125 45 15 48 15 84 2z"/>
<path d="M1554 1564 c-7 -29 -17 -41 -40 -50 -28 -11 -33 -10 -59 12 -15 13
-31 24 -34 24 -3 0 -25 -17 -49 -38 l-42 -37 20 -38 21 -38 -21 -30 c-16 -21
-30 -29 -51 -29 -33 0 -36 -4 -42 -76 l-5 -51 36 -9 c27 -7 39 -17 49 -41 12
-29 11 -34 -13 -63 l-26 -30 33 -45 c38 -50 45 -52 86 -28 27 15 31 15 56 -2
16 -10 28 -27 28 -41 3 -44 4 -47 24 -53 11 -3 38 -6 60 -6 38 0 40 2 49 37 7
29 16 40 39 48 25 8 34 7 51 -8 38 -34 51 -33 92 9 l38 39 -18 34 c-17 31 -17
36 -2 65 12 23 23 31 44 31 43 0 49 11 48 75 -1 57 -2 60 -28 63 -49 6 -71 65
-37 101 26 28 20 55 -21 99 -31 32 -39 33 -72 5 -14 -13 -20 -12 -47 2 -17 8
-31 19 -32 23 -3 24 -11 67 -13 69 -1 2 -28 6 -58 9 l-56 6 -8 -38z m131 -175
c135 -91 70 -313 -91 -313 -94 0 -164 73 -164 170 1 137 145 218 255 143z"/>
</g>
</svg>
