<?xml version="1.0" encoding="UTF-8"?>
<svg id="Capa_1" data-name="Capa 1" xmlns="http://www.w3.org/2000/svg" viewBox="0 0 2000 2000">
  <defs>
    <style>
      .cls-1 {
        fill: #2d2e87;
      }

      .cls-2 {
        fill: #1d1d1b;
      }

      .cls-3 {
        fill: #2d2e83;
      }

      .cls-4 {
        fill: #fff;
        font-family: Roboto-Medium, Roboto;
        font-size: 218px;
        font-weight: 500;
      }
    </style>
  </defs>
  <g>
    <g>
      <g>
        <path class="cls-1" d="M121.79,1224.78v-32.3h140.12v32.3h-52.18v139.13h-35.77v-139.13h-52.18Z"/>
        <path class="cls-1" d="M288.26,1363.91v-171.43h117.27v32.3h-81.49v34.78h74.04v32.3h-74.04v39.75h81.49v32.3h-117.27Z"/>
        <path class="cls-1" d="M422.41,1357.2l50.94-164.72h54.66l50.94,164.72-4.48,6.71h-29.81l-10.43-34.78h-67.08l-10.43,34.78h-29.81l-4.48-6.71ZM476.82,1296.83h47.71l-21.87-72.05h-3.97l-21.87,72.05Z"/>
        <path class="cls-1" d="M603.78,1363.91v-171.43h42.73l48.2,102.86,48.2-102.86h42.74v171.43h-35.78v-108.32l-40.25,85.96h-29.81l-40.25-85.96v108.32h-35.78Z"/>
      </g>
      <g>
        <path class="cls-2" d="M829.77,1322.17v-87.95c0-27.83,13.92-41.74,41.74-41.74h66.34l16.64,12.92v19.38h-81.5c-4.96,0-7.45,2.48-7.45,7.45v91.92c0,4.97,2.49,7.46,7.45,7.46h81.5v19.37l-16.64,12.92h-66.34c-27.83,0-41.74-13.92-41.74-41.74Z"/>
        <path class="cls-2" d="M987.29,1363.91v-171.43h117.27v32.3h-81.49v34.78h74.04v32.3h-74.04v39.75h81.49v32.3h-117.27Z"/>
        <path class="cls-2" d="M1137.35,1363.91v-171.43h35.78v139.14h74.04v32.3h-109.82Z"/>
        <path class="cls-2" d="M1272,1322.17v-129.69h35.78v131.68c0,4.97,2.49,7.46,7.45,7.46h48.7c4.97,0,7.45-2.49,7.45-7.46v-131.68h35.78v129.69c0,27.83-13.92,41.74-41.74,41.74h-51.68c-27.83,0-41.74-13.92-41.74-41.74Z"/>
        <path class="cls-2" d="M1446.42,1363.91v-171.43h35.78v139.14h74.04v32.3h-109.82Z"/>
        <path class="cls-2" d="M1566.66,1357.2l50.94-164.72h54.66l50.94,164.72-4.48,6.71h-29.81l-10.43-34.78h-67.08l-10.43,34.78h-29.81l-4.48-6.71ZM1621.07,1296.83h47.71l-21.87-72.05h-3.97l-21.87,72.05Z"/>
        <path class="cls-2" d="M1748.02,1363.91v-171.43h83.48c27.83,0,41.74,13.92,41.74,41.74v28.32c0,20.71-7.71,33.63-23.11,38.76l28.07,55.16-4.22,7.45h-30.81l-30.31-59.63h-29.07v59.63h-35.78ZM1783.8,1271.98h46.21c4.96,0,7.45-2.49,7.45-7.46v-32.3c0-4.97-2.49-7.45-7.45-7.45h-46.21v47.21Z"/>
      </g>
    </g>
    <g>
      <path class="cls-3" d="M1151.79,717.23h-79.81v-11.5c4.6-2.43,7.74-7.25,7.74-12.8,0-7.98-6.49-14.47-14.47-14.47s-14.47,6.49-14.47,14.47c0,5.55,3.14,10.37,7.74,12.8v11.5h-29.14v-44.8c7.05-2.71,12.07-9.54,12.07-17.53,0-10.37-8.43-18.8-18.8-18.8s-18.8,8.43-18.8,18.8c0,7.99,5.02,14.82,12.07,17.53v44.8h-93.35c-32.42,0-59.03,24.81-61.91,56.48h-32.55c-2.56-6.53-8.91-11.17-16.34-11.17-9.69,0-17.57,7.88-17.57,17.57s7.88,17.57,17.57,17.57c7.12,0,13.25-4.26,16.01-10.37h142.67c6.44,0,11.66-5.22,11.66-11.66v-1.94h-57.89c6.41-8.84,16.84-13.94,31.43-14.17l215.7.09s-4.05,70.13-67.03,69.51h-33.57v223.75s-21.55,0-21.55,0c-29.73,0-48.15-22.74-48.15-52.22v-31.57h-163.6c-2.08-4.69-6.78-7.97-12.23-7.97-7.38,0-13.38,6-13.38,13.38s6,13.38,13.38,13.38c4.36,0,8.23-2.11,10.67-5.34h24.5v50.06c0,34.34,27.84,62.18,62.18,62.18h178.52v28.3c-5,2.49-8.46,7.64-8.46,13.59,0,8.37,6.81,15.19,15.19,15.19s15.19-6.81,15.19-15.19c0-5.96-3.45-11.11-8.46-13.59v-28.3h37.22c34.34,0,62.18-27.84,62.18-62.18v-253.21c0-34.34-27.84-62.18-62.18-62.18ZM1065.25,685.2c4.27,0,7.74,3.46,7.74,7.74s-3.46,7.74-7.74,7.74-7.74-3.46-7.74-7.74,3.46-7.74,7.74-7.74ZM1012.48,654.89c0-5.62,4.56-10.18,10.18-10.18s10.18,4.56,10.18,10.18-4.56,10.18-10.18,10.18-10.18-4.56-10.18-10.18ZM811.79,789.21c-5.03,0-9.11-4.08-9.11-9.11s4.08-9.11,9.11-9.11,9.11,4.08,9.11,9.11-4.08,9.11-9.11,9.11ZM825.24,981.46c-3.83,0-6.94-3.11-6.94-6.94s3.11-6.94,6.94-6.94,6.94,3.11,6.94,6.94-3.11,6.94-6.94,6.94ZM1107.84,1144.56c-4.35,0-7.88-3.53-7.88-7.88s3.53-7.88,7.88-7.88,7.88,3.53,7.88,7.88-3.53,7.88-7.88,7.88Z"/>
      <path class="cls-3" d="M888.27,815.47h28.26v-.05h83.17c6.73,0,12.18-5.45,12.18-12.18v-1.72h-151.47v154.13h1.62s141.28,0,141.28,0c6.88,0,12.46-5.58,12.46-12.46v-.99h-14.72l-.03-113.09h-126.38c0-7.53,6.1-13.64,13.64-13.64Z"/>
    </g>
  </g>
  <text class="cls-4" transform="translate(497.07 -51.84)"><tspan x="0" y="0">Secundario</tspan></text>
</svg>